<svg xmlns="http://www.w3.org/2000/svg"  viewBox="0 0 72 72" width="64px" height="64px"><path d="M36,12c13.255,0,24,10.745,24,24	c0,13.255-10.745,24-24,24S12,49.255,12,36C12,22.745,22.745,12,36,12z M44.391,39c1.657,0,3-1.343,3-3s-1.343-3-3-3H34.69	l1.152-1.189c1.152-1.19,1.122-3.09-0.068-4.242c-1.19-1.152-3.089-1.122-4.242,0.068l-6.077,6.276c-1.126,1.164-1.126,3.01,0,4.174	l6.077,6.276c0.589,0.608,1.371,0.913,2.155,0.913c0.752,0,1.504-0.281,2.087-0.845c1.19-1.152,1.221-3.052,0.068-4.242L34.69,39	H44.391z"/></svg>